<svg xmlns="http://www.w3.org/2000/svg" viewBox="0 0 512 512"><circle cx="256" cy="256" r="256" fill="#001117"/><path d="M328.491 64.746L328.491 64.746Q318.018 64.746 296.213 59.414Q274.409 54.082 250.605 42.656L250.605 42.656Q195.571 16.377 166.816-20.281Q138.062-56.938 138.062-100.928L138.062-100.928Q138.062-106.831 138.918-112.734Q139.775-118.638 141.108-124.160L141.108-124.160L155.962-119.971Q153.296-110.449 153.296-100.928L153.296-100.928Q153.296-61.699 179.670-28.469Q206.045 4.761 257.080 28.945L257.080 28.945Q269.458 34.658 282.883 39.324Q296.309 43.989 308.401 46.750Q320.493 49.512 328.491 49.512L328.491 49.512Q332.490 49.512 335.823 46.655Q339.155 43.799 343.916 34.563Q348.677 25.327 356.484 6.475L356.484 6.475L362.769-8.569Q374.385-36.182 380.955-59.795Q387.524-83.408 387.524-96.929L387.524-96.929Q387.524-113.687 382.478-127.397Q377.432-141.108 368.958-149.202Q360.483-157.295 350.391-157.295L350.391-157.295Q339.346-157.295 326.777-149.106L326.777-149.106L318.398-161.675Q334.395-172.529 350.391-172.529L350.391-172.529Q365.244-172.529 377.051-162.341Q388.857-152.153 395.808-135.015Q402.759-117.876 402.759-96.929L402.759-96.929Q402.759-81.885 395.808-56.748Q388.857-31.611 376.860-2.856L376.860-2.856L370.576 12.188Q361.626 33.706 355.342 45.037Q349.058 56.367 343.059 60.557Q337.061 64.746 328.491 64.746ZM257.651 7.998L257.651 7.998Q243.179 7.998 231.086-4.285Q218.994-16.567 206.235-45.322L206.235-45.322L219.185-45.703Q229.277-23.042 238.418-13.235Q247.559-3.428 259.175-3.428L259.175-3.428Q266.792-3.428 266.792 2.285L266.792 2.285Q266.792 7.998 257.651 7.998ZM199.951-30.850L199.951-30.850Q197.666-30.850 195.762-32.468Q193.857-34.087 193.857-36.563L193.857-36.563Q193.857-37.705 195.095-41.895Q196.333-46.084 196.333-51.226L196.333-51.226Q196.333-63.794 190.239-81.885L190.239-81.885L201.284-85.313Q207.759-65.698 207.759-51.226L207.759-51.226Q207.759-46.846 207.092-42.561Q206.426-38.276 204.902-34.277L204.902-34.277Q203.569-30.850 199.951-30.850ZM232.324-33.135L232.324-33.135Q223.755-33.135 212.900-39.514Q202.046-45.894 196.523-53.320L196.523-53.320L205.664-59.795Q214.995-47.036 233.467-44.751L233.467-44.751Q238.799-44.180 238.799-39.038L238.799-39.038Q238.799-35.991 237.180-34.563Q235.562-33.135 232.324-33.135ZM138.823-177.100L138.823-177.100Q127.207-177.100 118.638-178.909Q110.068-180.718 101.880-184.717L101.880-184.717Q92.358-189.478 92.358-200.332L92.358-200.332Q92.358-211.567 97.595-218.042Q102.832-224.517 111.592-224.517L111.592-224.517Q113.877-224.517 116.162-224.041Q118.447-223.564 120.352-222.993L120.352-222.993Q123.779-222.041 128.159-221.279Q132.539-220.518 139.775-220.518L139.775-220.518Q147.012-220.518 152.439-222.993Q157.866-225.469 163.770-229.658L163.770-229.658L166.626-215.186Q160.532-211.758 154.058-209.473Q147.583-207.188 139.775-207.188L139.775-207.188Q124.160-207.188 119.114-209.187Q114.067-211.187 109.688-211.187L109.688-211.187Q107.402-211.187 105.784-208.425Q104.165-205.664 104.165-201.665L104.165-201.665Q104.165-196.333 113.115-193.381Q122.065-190.430 138.823-190.430L138.823-190.430Q145.488-190.430 150.535-191.477Q155.581-192.524 161.484-195.190L161.484-195.190L158.438-179.766Q154.248-178.433 149.392-177.766Q144.536-177.100 138.823-177.100ZM340.869-12.188L340.869-12.188Q337.441-12.188 335.728-15.425L335.728-15.425Q331.538-23.994 328.301-33.230Q325.063-42.466 322.969-54.653L322.969-54.653L333.252-60.366Q334.966-47.988 338.298-39.133Q341.631-30.278 346.011-20.757L346.011-20.757Q347.725-17.139 345.725-14.663Q343.726-12.188 340.869-12.188ZM190.049-73.315L190.049-73.315Q167.578-73.315 153.962-88.740Q140.347-104.165 140.347-131.587L140.347-131.587Q140.347-146.631 143.108-157.581Q145.869-168.530 149.487-177.385Q153.105-186.240 155.867-194.429Q158.628-202.617 158.628-211.948L158.628-211.948Q158.628-223.945 155.486-231.372Q152.344-238.799 148.250-243.750Q144.155-248.701 141.013-253.557Q137.871-258.413 137.871-265.269L137.871-265.269Q137.871-273.457 143.584-280.789Q149.297-288.120 158.342-292.690Q167.388-297.261 177.290-297.261L177.290-297.261Q188.525-297.261 196.333-287.168Q204.141-277.075 208.140-258.699Q212.139-240.322 212.139-215.376L212.139-215.376Q212.139-200.522 215.947-188.716Q219.756-176.909 224.897-166.531Q230.039-156.152 233.848-145.964Q237.656-135.776 237.656-123.970L237.656-123.970Q237.656-110.068 231.467-98.547Q225.278-87.026 214.519-80.171Q203.760-73.315 190.049-73.315ZM190.049-88.550L190.049-88.550Q204.141-88.550 213.281-98.928Q222.422-109.307 222.422-123.970L222.422-123.970Q222.422-132.349 219.375-141.299Q216.328-150.249 212.329-160.151L212.329-160.151Q204.902-178.623 201.855-191.191Q198.809-203.760 198.809-215.376L198.809-215.376Q198.809-234.800 195.762-250.129Q192.715-265.459 187.764-274.219Q182.813-282.979 177.290-282.979L177.290-282.979Q166.245-282.979 159.675-276.885Q153.105-270.791 153.105-265.269L153.105-265.269Q153.105-263.555 154.248-260.793Q155.391-258.032 158.818-253.652L158.818-253.652Q166.626-243.560 170.244-233.372Q173.862-223.184 173.862-211.948L173.862-211.948Q173.862-203.950 172.053-195.762Q170.244-187.573 165.293-174.624L165.293-174.624Q159.961-160.342 157.771-151.011Q155.581-141.680 155.581-131.587L155.581-131.587Q155.581-110.259 164.912-99.404Q174.243-88.550 190.049-88.550ZM312.686-13.711L312.686-13.711Q309.067-13.711 307.544-17.139Q306.021-20.566 308.306-23.232L308.306-23.232Q314.780-30.850 318.208-40.562Q321.636-50.273 322.969-66.460Q324.302-82.646 324.302-109.688L324.302-109.688L335.728-112.354Q335.728-83.979 334.014-66.079Q332.300-48.179 328.301-36.753Q324.302-25.327 317.065-16.187L317.065-16.187Q315.161-13.711 312.686-13.711ZM306.592-73.696L306.592-73.696Q303.735-73.696 301.926-75.886Q300.117-78.076 300.117-80.742L300.117-80.742Q300.117-83.599 302.021-85.503L302.021-85.503Q314.209-97.690 320.017-108.069Q325.825-118.447 325.825-126.636L325.825-126.636Q325.825-138.633 317.637-148.535Q309.448-158.438 295.737-164.341Q282.026-170.244 265.269-170.244L265.269-170.244Q249.844-170.244 240.703-164.436Q231.563-158.628 231.563-148.916L231.563-148.916L216.328-150.249Q216.328-166.816 230.134-176.147Q243.940-185.479 265.269-185.479L265.269-185.479Q286.216-185.479 303.354-177.576Q320.493-169.673 330.776-156.343Q341.060-143.013 341.060-126.636L341.060-126.636Q341.060-115.020 333.823-102.642Q326.587-90.264 313.638-77.314L313.638-77.314Q310.020-73.696 306.592-73.696ZM167.388-262.222L167.388-262.222Q163.198-262.222 163.198-265.269L163.198-265.269Q163.198-268.887 167.388-271.458Q171.577-274.028 175.386-274.028L175.386-274.028Q179.575-274.028 179.575-270.981L179.575-270.981Q179.575-267.363 175.386-264.792Q171.196-262.222 167.388-262.222ZM353.628-72.173L353.628-72.173Q351.152-72.173 349.629-74.077Q348.105-75.981 348.105-78.647L348.105-78.647Q348.105-80.742 348.296-82.551Q348.486-84.360 348.486-86.265L348.486-86.265Q348.486-108.926 330.967-121.875L330.967-121.875L337.822-131.016Q359.912-115.020 359.912-86.265L359.912-86.265Q359.912-83.979 359.817-81.790Q359.722-79.600 359.341-77.314L359.341-77.314Q358.770-72.173 353.628-72.173ZM216.899-186.240L205.474-186.240Q205.474-200.522 206.426-210.996Q207.378-221.470 210.234-230.801Q213.091-240.132 218.613-250.605L218.613-250.605L195.190-287.358Q193.477-290.215 193.477-293.262L193.477-293.262Q193.477-298.022 197.000-302.402Q200.522-306.782 205.854-309.639Q211.187-312.495 216.328-312.495L216.328-312.495Q223.184-312.495 226.611-307.354L226.611-307.354L248.701-275.361L245.464-273.457L238.418-312.686Q237.085-320.112 242.322-325.730Q247.559-331.348 259.365-331.348L259.365-331.348Q266.030-331.348 270.220-327.729Q274.409-324.111 274.980-319.922L274.980-319.922L280.503-282.407L278.408-282.407L283.169-317.446Q283.931-322.397 287.930-325.444Q291.929-328.491 298.403-328.491L298.403-328.491Q307.354-328.491 313.257-324.111Q319.160-319.731 318.398-312.876L318.398-312.876L313.828-272.124Q318.779-269.268 323.540-264.507L323.540-264.507L315.542-256.509Q309.829-262.222 301.641-265.649L301.641-265.649L306.401-310.781Q306.782-313.447 305.164-315.256Q303.545-317.065 300.308-317.065L300.308-317.065Q294.785-317.065 294.214-312.305L294.214-312.305L288.120-269.077Q285.645-270.029 281.265-270.505Q276.885-270.981 270.601-270.981L270.601-270.981L264.316-313.828Q263.745-319.351 257.461-319.351L257.461-319.351Q253.271-319.351 251.367-317.446Q249.463-315.542 250.034-312.686L250.034-312.686L258.413-267.363Q254.795-266.030 251.558-264.412Q248.320-262.793 245.273-260.127L245.273-260.127L218.232-298.975Q217.471-300.308 215.376-300.308L215.376-300.308Q211.948-300.308 208.235-296.880Q204.521-293.452 205.854-291.357L205.854-291.357L231.943-250.986Q225.850-240.322 222.517-231.753Q219.185-223.184 218.042-212.805Q216.899-202.427 216.899-186.240L216.899-186.240ZM386.001-146.821L386.001-146.821L370.767-148.345Q371.147-149.868 371.147-151.011Q371.147-152.153 371.147-153.296L371.147-153.296Q371.147-165.483 364.768-175.862Q358.389-186.240 347.915-192.620Q337.441-198.999 325.063-198.999L325.063-198.999Q317.827-198.999 308.687-196.333L308.687-196.333L308.687-212.139Q317.637-214.233 325.063-214.233L325.063-214.233Q341.631-214.233 355.627-205.854Q369.624-197.476 378.003-183.574Q386.382-169.673 386.382-153.296L386.382-153.296Q386.382-151.582 386.287-149.963Q386.191-148.345 386.001-146.821ZM326.016-165.483L316.494-156.343Q309.067-162.437 303.831-172.720Q298.594-183.003 298.594-194.048L298.594-194.048Q298.594-218.423 320.017-232.039Q341.440-245.654 374.956-245.654L374.956-245.654Q378.574-245.654 380.479-248.701Q382.383-251.748 382.383-256.318L382.383-256.318Q382.383-264.126 377.813-268.696Q373.242-273.267 367.529-273.267L367.529-273.267Q364.673-273.267 362.578-272.029Q360.483-270.791 355.532-266.602L355.532-266.602Q353.247-264.697 349.915-262.698Q346.582-260.698 342.964-259.365L342.964-259.365L301.831-244.512Q298.784-243.369 295.547-242.798Q292.310-242.227 289.834-242.227L289.834-242.227Q285.264-242.227 279.932-243.750L279.932-243.750Q272.314-242.988 266.316-232.610Q260.317-222.231 260.317-207.378L260.317-207.378Q260.317-195.571 265.269-180.146L265.269-180.146L250.796-175.576Q245.083-193.667 245.083-207.378L245.083-207.378Q245.083-229.468 255.747-244.226Q266.411-258.984 282.026-258.984L282.026-258.984Q287.168-257.461 289.834-257.461L289.834-257.461Q292.690-257.461 296.880-258.984L296.880-258.984L337.632-273.838Q340.869-274.980 345.154-278.599Q349.438-282.217 355.056-285.359Q360.674-288.501 367.529-288.501L367.529-288.501Q379.907-288.501 388.762-279.265Q397.617-270.029 397.617-256.318L397.617-256.318Q397.617-245.654 390.667-238.037Q383.716-230.420 374.956-230.420L374.956-230.420Q347.534-230.420 330.681-220.803Q313.828-211.187 313.828-194.048L313.828-194.048Q313.828-186.050 317.637-177.671Q321.445-169.292 326.016-165.483L326.016-165.483ZM333.252-202.236L333.252-202.236L324.111-209.092Q329.253-215.566 329.253-231.372L329.253-231.372L340.679-231.372Q340.679-211.948 333.252-202.236Z" fill="#f7f3e3" transform="translate(8.441497802734375, 389.3009948730469)"/></svg>